<svg xmlns="http://www.w3.org/2000/svg" viewBox="0 0 123.18359 102.92578">
  <path
     id="path4177"
     d="m 114.10156,14.04297 c -2.74219,0 -4.96094,-2.22266 -4.96094,-4.96094 0,-2.74219 2.21875,-4.96094 4.96094,-4.96094 2.73828,0 4.96094,2.21875 4.96094,4.96094 0,2.73828 -2.22266,4.96094 -4.96094,4.96094 M 64.83203,98.80468 c -2.74219,0 -4.96094,-2.22265 -4.96094,-4.96093 0,-2.74219 2.21875,-4.96094 4.96094,-4.96094 2.73828,0 4.95703,2.21875 4.95703,4.96094 0,2.73828 -2.21875,4.96093 -4.95703,4.96093 M 114.10156,0 c -5.01563,0 -9.08203,4.0664 -9.08203,9.08203 0,1.07031 0.26953,2.0664 0.60937,3.01953 L 63.02343,85.125 C 58.90625,85.98828 55.75,89.46875 55.75,93.84375 c 0,5.01562 4.0664,9.08203 9.08203,9.08203 5.01172,0 9.07812,-4.06641 9.07812,-9.08203 0,-1.00782 -0.26953,-1.92969 -0.57031,-2.83594 l 42.82031,-73.26172 c 3.99219,-0.95703 7.02344,-4.37891 7.02344,-8.66406 C 123.18359,4.0664 119.11718,0 114.10156,0"
     style="fill:#0c544c;fill-opacity:1;fill-rule:nonzero;stroke:none" />
  <path
     id="path4179"
     d="m 76.9414,14.04297 c -2.74218,0 -4.96093,-2.22266 -4.96093,-4.96094 0,-2.74219 2.21875,-4.96094 4.96093,-4.96094 2.73828,0 4.95703,2.21875 4.95703,4.96094 0,2.73828 -2.21875,4.96094 -4.95703,4.96094 M 27.66797,98.80468 c -2.73829,0 -4.96094,-2.22265 -4.96094,-4.96093 0,-2.74219 2.22265,-4.96094 4.96094,-4.96094 2.74218,0 4.96093,2.21875 4.96093,4.96094 0,2.73828 -2.21875,4.96093 -4.96093,4.96093 M 76.9414,0 c -5.01953,0 -9.08203,4.0664 -9.08203,9.08203 0,1.07031 0.26953,2.0664 0.60938,3.01953 L 25.86328,85.125 c -4.1211,0.86328 -7.27735,4.34375 -7.27735,8.71875 0,5.01562 4.06641,9.08203 9.08204,9.08203 5.01562,0 9.08203,-4.06641 9.08203,-9.08203 0,-1.00782 -0.26953,-1.92969 -0.57032,-2.83594 L 79,17.74609 C 82.99218,16.78906 86.02343,13.36718 86.02343,9.08203 86.02343,4.0664 81.95312,0 76.9414,0"
     style="fill:#073551;fill-opacity:1;fill-rule:nonzero;stroke:none" />
  <path
     id="path4181"
     d="m 9.08203,29.22656 c 2.73828,0 4.96094,2.22266 4.96094,4.96094 0,2.73828 -2.22266,4.96093 -4.96094,4.96093 -2.74219,0 -4.96094,-2.22265 -4.96094,-4.96093 0,-2.73828 2.21875,-4.96094 4.96094,-4.96094 m 0,14.04297 c 5.01562,0 9.08203,-4.06641 9.08203,-9.08203 0,-1.00391 -0.27344,-1.92969 -0.57422,-2.83594 -1.20312,-3.60547 -4.5,-6.24609 -8.50781,-6.24609 -0.64063,0 -1.20313,0.23828 -1.8086,0.36718 C 3.15625,26.33203 0,29.8125 0,34.1875 c 0,5.01562 4.0664,9.08203 9.08203,9.08203"
     style="fill:#073551;fill-opacity:1;fill-rule:nonzero;stroke:none" />
  <path
     id="path4183"
     d="m 4.12109,65.92187 c 0,-2.74219 2.22266,-4.96094 4.96094,-4.96094 2.73828,0 4.96094,2.21875 4.96094,4.96094 0,2.73828 -2.22266,4.95703 -4.96094,4.95703 -2.73828,0 -4.96094,-2.21875 -4.96094,-4.95703 m 14.04297,0 c 0,-1.00781 -0.27344,-1.92969 -0.57422,-2.83594 -1.20312,-3.60546 -4.49609,-6.24609 -8.50781,-6.24609 -0.64063,0 -1.20313,0.23828 -1.8086,0.36328 C 3.15625,58.0664 0,61.54687 0,65.92187 c 0,5.01172 4.0664,9.08203 9.08203,9.08203 5.01562,0 9.08203,-4.07031 9.08203,-9.08203"
     style="fill:#073551;fill-opacity:1;fill-rule:nonzero;stroke:none" />
</svg>
