<svg viewBox="-0.0003705024719238281 270.2080078125 1023.9548950195312 382.59442138671875" xmlns="http://www.w3.org/2000/svg" transform="scale(1, -1)">
  <path 
    fill="#00acd7"
    d="M77.244 536.915c-1.994 0-2.493 0.997-1.496 2.493l10.47 13.462c0.997 1.496 3.49 2.493 5.484 2.493h177.995c1.994 0 2.493-1.496 1.496-2.991l-8.476-12.963c-0.997-1.496-3.49-2.991-4.986-2.991l-180.488 0.499zM1.994 491.103c-1.994 0-2.493 0.997-1.496 2.493l10.47 13.462c0.997 1.496 3.49 2.493 5.484 2.493h227.355c1.994 0 2.991-1.496 2.493-2.991l-3.988-11.966c-0.499-1.994-2.493-2.991-4.488-2.991l-235.83-0.499zM122.62 445.228c-1.994 0-2.493 1.496-1.496 2.991l6.98 12.465c0.997 1.496 2.991 2.991 4.986 2.991h99.716c1.995 0 2.992-1.496 2.992-3.49l-0.997-11.966c0-1.994-1.995-3.49-3.491-3.49l-108.691 0.499zM640.128 545.932c-31.409-7.977-52.848-13.96-83.761-21.937-7.478-1.994-7.977-2.493-14.459 4.986-7.478 8.476-12.963 13.96-23.434 18.947-31.411 15.456-61.825 10.968-90.244-7.479-33.903-21.938-51.354-54.346-50.856-94.731 0.499-39.887 27.921-72.794 67.309-78.278 33.903-4.488 62.323 7.478 84.759 32.906 4.488 5.485 8.476 11.468 13.462 18.448-17.949 0-40.385 0-96.227 0-10.47 0-12.963 6.481-9.473 14.957 6.481 15.456 18.447 41.382 25.428 54.346 1.496 2.991 4.986 7.978 12.465 7.978h181.484c-0.998-13.462-0.998-26.924-2.989-40.386-5.485-35.898-18.948-68.804-40.886-97.722-35.898-47.367-82.765-76.781-142.097-84.762-48.861-6.477-94.233 2.995-134.12 32.909-36.895 27.921-57.836 64.817-63.32 110.686-6.481 54.346 9.473 103.207 42.38 146.086 35.4 46.368 82.267 75.785 139.604 86.255 46.867 8.476 91.74 2.992 132.125-24.431 26.425-17.45 45.371-41.382 57.834-70.3 2.995-4.487 0.998-6.98-4.986-8.476v0zM805.139 270.208c-45.37 0.998-86.752 13.958-121.658 43.872-29.414 25.43-47.862 57.837-53.846 96.228-8.975 56.34 6.482 106.198 40.387 150.573 36.397 47.864 80.269 72.793 139.603 83.263 50.854 8.975 98.72 3.988 142.099-25.428 39.386-26.924 63.814-63.32 70.298-111.184 8.474-67.309-10.97-122.154-57.338-169.020-32.909-33.405-73.293-54.346-119.661-63.818-13.459-2.496-26.925-2.995-39.885-4.486v0zM923.802 471.635c-0.499 6.481-0.499 11.468-1.498 16.453-8.973 49.36-54.342 77.281-101.709 66.312-46.368-10.47-76.282-39.887-87.251-86.753-8.979-38.89 9.971-78.278 45.869-94.233 27.424-11.966 54.842-10.47 81.267 2.992 39.392 20.442 60.826 52.351 63.322 95.229v0z" />
</svg>