<svg width="128" height="128" viewBox="92.37493133544922 -46.23812484741211 864.0029296875 974.2269897460938" xmlns="http://www.w3.org/2000/svg" transform="scale(1, -1)">
  <path 
    fill="#89d42c"
    d="M486.317-36.166l-118.626 70.522c-12.696 6.701-13.818 11.917-3.36 15.674 17.904 5.958 35.808 14.157 53.718 24.614 2.964 1.478 5.958 1.126 8.952-1.12l91.77-53.722c3.726-2.234 7.44-2.234 11.184 0l355.894 205.933c3.718 1.485 5.594 4.474 5.594 8.941v411.852c0 4.482-1.875 7.848-5.594 10.080l-355.894 205.932c-3.744 2.238-7.464 2.238-11.184 0l-357.006-205.932c-3.75-2.232-5.598-5.598-5.598-10.080v-411.852c0-4.467 1.854-7.456 5.598-8.941l98.484-57.094c26.118-11.181 46.812-12.314 62.112-3.341 15.282 8.941 22.944 21.99 22.944 39.168v407.386c0 6.702 3.36 10.056 10.074 10.056h45.888c6.708 0 10.074-3.354 10.074-10.056v-407.373c0-35.098-9.348-62.317-27.984-81.715-18.654-19.392-44.766-29.101-78.336-29.101-23.892 0-51.126 7.456-81.702 22.394l-94.014 53.715c-24.612 14.157-36.93 35.808-36.93 64.909v411.846c0 29.112 12.318 50.742 36.93 64.914l357.012 205.926c25.362 14.16 50.37 14.16 74.988 0l357.012-205.926c25.363-14.172 38.061-35.808 38.061-64.914v-411.852c0-29.101-12.698-50.752-38.061-64.902l-355.896-205.939c-11.94-6.701-24.618-10.074-38.046-10.074s-26.124 3.373-38.058 10.074zM538.925 248.666c-26.13 7.853-45.516 18.662-58.2 32.467-12.696 13.798-21.828 27.789-27.42 41.952-5.598 14.179-8.394 29.485-8.394 45.894 0 6.732 3.726 10.074 11.19 10.074h45.882c5.971 0 9.331-2.616 10.080-7.842 3.72-25.362 13.795-43.634 30.216-54.834 16.404-11.187 47.004-16.787 91.77-16.787 37.298 0 64.524 4.634 81.695 13.984 17.152 9.325 25.747 23.683 25.747 43.087 0 8.964-2.24 16.248-6.72 21.821-4.474 5.604-16.224 11.004-35.251 16.243-19.034 5.213-47.194 9.684-84.491 13.428-53.73 5.202-93.456 15.672-119.19 31.332-25.746 15.678-38.61 41.772-38.61 78.354 0 35.808 14.352 63.954 43.086 84.498 28.716 20.514 68.442 30.768 119.19 30.768 57.442 0 100.719-10.254 129.813-30.768 29.101-20.544 45.139-52.050 48.128-94.584 0.736-2.976 0-5.598-2.24-7.83-2.234-2.238-4.858-3.372-7.827-3.372h-45.882c-5.99 0-9.344 2.616-10.074 7.848-5.978 24.624-16.979 41.79-33.011 51.48-16.051 9.684-42.362 14.556-78.902 14.556-61.188 0-91.77-16.794-91.77-50.37 0-9.714 2.604-16.788 7.836-21.252 5.214-4.5 16.224-8.802 33.012-12.876 16.788-4.116 43.83-8.778 81.139-13.986 58.938-8.232 100.73-19.782 125.35-34.704 24.627-14.922 36.928-40.68 36.928-77.22 0-38.799-15.488-69.026-46.445-90.645-30.963-21.651-74.81-32.454-131.501-32.454-37.332 0-69.036 3.904-95.136 11.738z" />
</svg>