<svg viewBox="92.37493133544922 -46.23812484741211 864.0029296875 974.2269897460938" xmlns="http://www.w3.org/2000/svg" transform="scale(1, -1)">
  <path d="M757.517 435.314c-0.403 73.413 32.806 128.824 100.013 169.631-37.606 53.81-94.413 83.415-169.427 89.216-71.014 5.601-148.628-41.407-177.033-41.407-30.005 0-98.818 39.407-152.828 39.407-111.62-1.8-230.242-89.016-230.242-266.449 0-52.41 9.602-106.621 28.805-162.429 25.604-73.414 118.022-253.446 214.439-250.445 50.409 1.197 86.016 35.808 151.628 35.808 63.612 0 96.618-35.808 152.828-35.808 97.216 1.402 180.832 165.030 205.235 238.643-130.419 61.408-123.418 180.031-123.418 183.832v0zM644.294 763.773c54.611 64.812 49.606 123.823 48.006 145.027-48.205-2.801-104.017-32.806-135.823-69.812-35.007-39.608-55.61-88.616-51.21-143.827 52.21-4.001 99.818 22.804 139.026 68.612v0z" />
</svg>