<svg width="128" height="128" viewBox="-0.00096893310546875 228.34494018554688 1023.96484375 488.4551086425781" xmlns="http://www.w3.org/2000/svg" transform="scale(1, -1)">
  <path 
    fill="#8993be" 
    d="M204.812 553.359c11.277 1.418 22.724 0.587 33.679-2.445s21.199-8.205 30.142-15.22c5.771-8.888 9.45-18.97 10.762-29.486s0.22-21.192-3.19-31.226c-2.993-24.7-14.938-47.446-33.575-63.93-22.474-14.477-49.042-21.267-75.707-19.348h-51.203l31.453 161.326 57.64 0.329zM0 228.365h84.119l19.933 102.406h71.94c26.504-0.672 52.952 2.744 78.413 10.132 20.911 6.904 40.026 18.372 55.958 33.574 27.555 24.778 46.125 57.985 52.812 94.433 5.278 18.141 6.207 37.27 2.712 55.837s-11.315 36.049-22.828 51.030c-13.88 13.754-30.594 24.314-48.977 30.94s-37.99 9.16-57.453 7.425h-161.398l-75.232-385.78zM424.893 716.8h83.497l-20.225-102.406h74.28c34.127 3.573 68.413-5.099 96.735-24.468 9.376-10.653 15.782-23.583 18.579-37.494s1.894-28.312-2.63-41.761l-34.893-179.542h-84.483l33.208 170.691c2.31 6.513 3.135 13.459 2.414 20.332s-2.971 13.497-6.583 19.388c-12.107 8.686-27.071 12.427-41.841 10.46h-66.673l-42.974-221.050h-83.68l75.268 385.85zM860.813 553.338c11.277 1.418 22.72 0.587 33.677-2.445s21.197-8.205 30.144-15.22c5.766-8.888 9.446-18.97 10.758-29.486s0.224-21.192-3.187-31.226c-2.995-24.701-14.938-47.446-33.574-63.931-22.515-14.508-49.139-21.299-75.853-19.347h-51.168l31.379 161.508 57.824 0.147zM656 228.346h84.122l19.93 102.406h71.974c26.554-0.691 53.056 2.727 78.56 10.131 20.915 6.904 40.026 18.372 55.962 33.574 27.488 24.804 45.99 58.008 52.627 94.433 5.28 18.141 6.208 37.27 2.714 55.837s-11.315 36.050-22.829 51.030c-13.882 13.73-30.598 24.266-48.973 30.873s-37.971 9.127-57.421 7.383h-161.651l-75.014-385.668z" />
</svg>