<svg viewBox="-0.00096893310546875 228.34494018554688 1023.96484375 488.4551086425781" xmlns="http://www.w3.org/2000/svg" transform="scale(1, -1)">
  <path 
    fill="#d91504" 
    d="M1.387 70.413l31.44 306.93 55.818-46.821-88.396-276.512 1.137 16.403zM104.931 290.669l138.487-277.664-232.702-29.267 94.215 306.931zM259.703-18.65v0l4.64 1.146v-1.146l657.443-25.741-894.785-3.526 232.702 29.267zM508.698 727.651l-216.417-242.475-191.989-121.863-54.682 46.82 76.793 145.315 182.71 205.099 174.511 123.001 80.303-22.315-51.228-133.582zM242.239 77.466l-127.979 256.585 179.2 114.802-51.221-371.387zM697.229 367.992l-431.699-343.262 58.191 421.733 373.508-78.471zM721.651 344.54l268.787-366.716-695.841 26.989 427.054 339.727zM527.348 699.619l160.549-305.885-361.868 80.861 201.318 225.024zM812.416 971.363l-240.894-78.471-43.036 11.726 283.93 66.745zM543.641 727.651l53.502 137.109 297.897-48.057-351.399-89.052zM557.603 699.619l380.471 103.068-218.733-411.235-161.738 308.167zM976.467 829.674l-318.822 56.156 254.81 83.243 64.013-139.399zM1017.19-17.504l-276.928 378.442 239.706 452.331 37.222-830.772z" />
</svg>